<svg width="14" height="14" viewBox="0 0 14 14" fill="none" xmlns="http://www.w3.org/2000/svg">
<path d="M13.9084 2.78364C13.8712 2.739 13.8247 2.70308 13.7721 2.67843C13.7195 2.65378 13.6621 2.641 13.604 2.641H2.83967L2.49825 0.758896C2.45956 0.545753 2.34726 0.352961 2.18095 0.214162C2.01463 0.0753638 1.80486 -0.000626971 1.58823 -0.000549257H0.396232C0.291145 -0.000549257 0.190362 0.0411965 0.116054 0.115504C0.0417458 0.189812 0 0.290596 0 0.395683C0 0.500771 0.0417458 0.601554 0.116054 0.675862C0.190362 0.75017 0.291145 0.791916 0.396232 0.791916H1.58493C1.6162 0.791405 1.64664 0.802011 1.67083 0.821844C1.69502 0.841677 1.71138 0.869451 1.71701 0.900219L3.40165 10.1655C3.45509 10.461 3.5991 10.7326 3.81374 10.9427C3.55455 11.15 3.36101 11.428 3.25652 11.743C3.15203 12.058 3.14108 12.3966 3.22499 12.7177C3.3089 13.0388 3.48408 13.3287 3.72932 13.5523C3.97456 13.776 4.27936 13.9237 4.60682 13.9777C4.93429 14.0317 5.27039 13.9897 5.57445 13.8566C5.87851 13.7236 6.1375 13.5053 6.32008 13.2281C6.50265 12.951 6.60099 12.6268 6.60318 12.295C6.60538 11.9631 6.51134 11.6377 6.33245 11.3581H9.781C9.57566 11.6794 9.48314 12.06 9.51802 12.4397C9.55291 12.8195 9.71321 13.1768 9.97365 13.4553C10.2341 13.7339 10.5798 13.9178 10.9564 13.9781C11.3329 14.0384 11.7188 13.9716 12.0532 13.7883C12.3876 13.605 12.6514 13.3156 12.8031 12.9657C12.9548 12.6158 12.9857 12.2254 12.891 11.856C12.7963 11.4867 12.5812 11.1593 12.2799 10.9257C11.9785 10.692 11.6079 10.5654 11.2266 10.5656H4.83205C4.67739 10.5657 4.52763 10.5114 4.40888 10.4123C4.29013 10.3132 4.20992 10.1756 4.18223 10.0235L3.94449 8.71656H11.7615C12.1018 8.71665 12.4312 8.59731 12.6925 8.37936C12.9538 8.1614 13.1303 7.85866 13.1912 7.5239L13.9936 3.10789C14.004 3.05091 14.0017 2.99234 13.987 2.93632C13.9723 2.88029 13.9455 2.82818 13.9084 2.78364ZM5.81141 12.2827C5.81141 12.4655 5.75718 12.6443 5.65559 12.7963C5.554 12.9483 5.40961 13.0668 5.24067 13.1368C5.07173 13.2068 4.88584 13.2251 4.7065 13.1894C4.52715 13.1538 4.36242 13.0657 4.23312 12.9364C4.10382 12.8071 4.01576 12.6424 3.98009 12.463C3.94441 12.2837 3.96272 12.0978 4.0327 11.9288C4.10268 11.7599 4.22118 11.6155 4.37322 11.5139C4.52526 11.4123 4.70401 11.3581 4.88687 11.3581C5.13207 11.3581 5.36723 11.4555 5.54062 11.6289C5.714 11.8023 5.81141 12.0375 5.81141 12.2827ZM12.1511 12.2827C12.1511 12.4655 12.0969 12.6443 11.9953 12.7963C11.8937 12.9483 11.7493 13.0668 11.5804 13.1368C11.4115 13.2068 11.2256 13.2251 11.0462 13.1894C10.8669 13.1538 10.7021 13.0657 10.5728 12.9364C10.4435 12.8071 10.3555 12.6424 10.3198 12.463C10.2841 12.2837 10.3024 12.0978 10.3724 11.9288C10.4424 11.7599 10.5609 11.6155 10.7129 11.5139C10.865 11.4123 11.0437 11.3581 11.2266 11.3581C11.4718 11.3581 11.7069 11.4555 11.8803 11.6289C12.0537 11.8023 12.1511 12.0375 12.1511 12.2827ZM12.4113 7.38192C12.3836 7.53408 12.3034 7.6717 12.1847 7.77078C12.0659 7.86986 11.9162 7.92412 11.7615 7.9241H3.80053L2.98429 3.43347H13.1292L12.4113 7.38192Z" fill="white"/>
</svg>
