<svg width="19" height="18" viewBox="0 0 19 18" fill="none" xmlns="http://www.w3.org/2000/svg">
<path d="M8.2949 12.75H9.80314V8.25H8.2949V12.75ZM9.04902 6.75C9.26269 6.75 9.44192 6.678 9.58671 6.534C9.7315 6.39 9.80365 6.212 9.80314 6C9.80314 5.7875 9.73075 5.60925 9.58596 5.46525C9.44116 5.32125 9.26219 5.2495 9.04902 5.25C8.83535 5.25 8.65612 5.322 8.51133 5.466C8.36654 5.61 8.2944 5.788 8.2949 6C8.2949 6.2125 8.3673 6.39075 8.51209 6.53475C8.65688 6.67875 8.83586 6.7505 9.04902 6.75ZM9.04902 16.5C8.00582 16.5 7.02546 16.303 6.10795 15.909C5.19044 15.515 4.39232 14.9808 3.71362 14.3063C3.03491 13.6313 2.49772 12.8375 2.10206 11.925C1.7064 11.0125 1.50832 10.0375 1.50781 9C1.50781 7.9625 1.70589 6.9875 2.10206 6.075C2.49822 5.1625 3.03541 4.36875 3.71362 3.69375C4.39232 3.01875 5.19044 2.4845 6.10795 2.091C7.02546 1.6975 8.00582 1.5005 9.04902 1.5C10.0922 1.5 11.0726 1.697 11.9901 2.091C12.9076 2.485 13.7057 3.01925 14.3844 3.69375C15.0631 4.36875 15.6006 5.1625 15.9967 6.075C16.3929 6.9875 16.5907 7.9625 16.5902 9C16.5902 10.0375 16.3921 11.0125 15.996 11.925C15.5998 12.8375 15.0626 13.6313 14.3844 14.3063C13.7057 14.9813 12.9076 15.5157 11.9901 15.9097C11.0726 16.3037 10.0922 16.5005 9.04902 16.5ZM9.04902 15C10.7332 15 12.1598 14.4187 13.3287 13.2562C14.4975 12.0937 15.082 10.675 15.082 9C15.082 7.325 14.4975 5.90625 13.3287 4.74375C12.1598 3.58125 10.7332 3 9.04902 3C7.36482 3 5.93827 3.58125 4.76939 4.74375C3.6005 5.90625 3.01605 7.325 3.01605 9C3.01605 10.675 3.6005 12.0937 4.76939 13.2562C5.93827 14.4187 7.36482 15 9.04902 15Z" fill="#EE3A3A"/>
</svg>
