<svg width="21" height="21" viewBox="0 0 21 21" fill="none" xmlns="http://www.w3.org/2000/svg">
<path d="M9.5192 14.6667H11.1859V9.66666H9.5192V14.6667ZM10.3525 7.99999C10.5886 7.99999 10.7867 7.91999 10.9467 7.75999C11.1067 7.59999 11.1864 7.40221 11.1859 7.16666C11.1859 6.93055 11.1059 6.73249 10.9459 6.57249C10.7859 6.41249 10.5881 6.33277 10.3525 6.33332C10.1164 6.33332 9.91837 6.41332 9.75837 6.57332C9.59837 6.73332 9.51865 6.9311 9.5192 7.16666C9.5192 7.40277 9.5992 7.60082 9.7592 7.76082C9.9192 7.92082 10.117 8.00055 10.3525 7.99999ZM10.3525 18.8333C9.19976 18.8333 8.11643 18.6144 7.10254 18.1767C6.08865 17.7389 5.2067 17.1453 4.4567 16.3958C3.7067 15.6458 3.11309 14.7639 2.67587 13.75C2.23865 12.7361 2.01976 11.6528 2.0192 10.5C2.0192 9.34721 2.23809 8.26388 2.67587 7.24999C3.11365 6.2361 3.70726 5.35416 4.4567 4.60416C5.2067 3.85416 6.08865 3.26055 7.10254 2.82332C8.11643 2.3861 9.19976 2.16721 10.3525 2.16666C11.5053 2.16666 12.5886 2.38555 13.6025 2.82332C14.6164 3.2611 15.4984 3.85471 16.2484 4.60416C16.9984 5.35416 17.5923 6.2361 18.03 7.24999C18.4678 8.26388 18.6864 9.34721 18.6859 10.5C18.6859 11.6528 18.467 12.7361 18.0292 13.75C17.5914 14.7639 16.9978 15.6458 16.2484 16.3958C15.4984 17.1458 14.6164 17.7397 13.6025 18.1775C12.5886 18.6153 11.5053 18.8339 10.3525 18.8333ZM10.3525 17.1667C12.2136 17.1667 13.79 16.5208 15.0817 15.2292C16.3734 13.9375 17.0192 12.3611 17.0192 10.5C17.0192 8.63888 16.3734 7.06249 15.0817 5.77082C13.79 4.47916 12.2136 3.83332 10.3525 3.83332C8.49143 3.83332 6.91504 4.47916 5.62337 5.77082C4.3317 7.06249 3.68587 8.63888 3.68587 10.5C3.68587 12.3611 4.3317 13.9375 5.62337 15.2292C6.91504 16.5208 8.49143 17.1667 10.3525 17.1667Z" fill="#001C30"/>
</svg>
