<svg width="24" height="24" viewBox="0 0 24 24" fill="none" xmlns="http://www.w3.org/2000/svg">
<path fill-rule="evenodd" clip-rule="evenodd" d="M9.76539 2.99801C10.0468 2.68376 10.3913 2.43237 10.7764 2.26027C11.1615 2.08816 11.5786 1.99921 12.0004 1.99921C12.4222 1.99921 12.8393 2.08816 13.2244 2.26027C13.6095 2.43237 13.954 2.68376 14.2354 2.99801L14.9354 3.78001C15.0354 3.89192 15.1594 3.97987 15.298 4.03734C15.4367 4.09482 15.5865 4.12034 15.7364 4.11201L16.7864 4.05401C17.2074 4.03089 17.6286 4.09679 18.0225 4.24741C18.4164 4.39804 18.774 4.63 19.0722 4.92818C19.3704 5.22635 19.6024 5.58404 19.753 5.97791C19.9036 6.37177 19.9695 6.79296 19.9464 7.21401L19.8884 8.26401C19.8802 8.41372 19.9058 8.56335 19.9633 8.70182C20.0207 8.8403 20.1086 8.96408 20.2204 9.06401L21.0034 9.76401C21.3178 10.0454 21.5693 10.3899 21.7415 10.7752C21.9137 11.1604 22.0028 11.5776 22.0028 11.9995C22.0028 12.4215 21.9137 12.8387 21.7415 13.2239C21.5693 13.6091 21.3178 13.9536 21.0034 14.235L20.2204 14.935C20.1085 15.0351 20.0205 15.159 19.9631 15.2977C19.9056 15.4363 19.8801 15.5861 19.8884 15.736L19.9464 16.786C19.9695 17.2071 19.9036 17.6283 19.753 18.0221C19.6024 18.416 19.3704 18.7737 19.0722 19.0718C18.774 19.37 18.4164 19.602 18.0225 19.7526C17.6286 19.9032 17.2074 19.9691 16.7864 19.946L15.7364 19.888C15.5867 19.8798 15.4371 19.9054 15.2986 19.9629C15.1601 20.0204 15.0363 20.1082 14.9364 20.22L14.2364 21.003C13.955 21.3174 13.6105 21.569 13.2252 21.7412C12.84 21.9134 12.4228 22.0024 12.0009 22.0024C11.5789 22.0024 11.1617 21.9134 10.7765 21.7412C10.3913 21.569 10.0468 21.3174 9.76539 21.003L9.06539 20.22C8.96535 20.1081 8.84141 20.0202 8.70274 19.9627C8.56408 19.9052 8.41426 19.8797 8.26439 19.888L7.21439 19.946C6.79334 19.9691 6.37215 19.9032 5.97828 19.7526C5.58442 19.602 5.22673 19.37 4.92855 19.0718C4.63038 18.7737 4.39841 18.416 4.24779 18.0221C4.09716 17.6283 4.03126 17.2071 4.05439 16.786L4.11239 15.736C4.12056 15.5863 4.09497 15.4367 4.0375 15.2982C3.98003 15.1597 3.89216 15.0359 3.78039 14.936L2.99839 14.236C2.68397 13.9546 2.43244 13.6101 2.26024 13.2249C2.08803 12.8397 1.99902 12.4225 1.99902 12.0005C1.99902 11.5786 2.08803 11.1614 2.26024 10.7762C2.43244 10.3909 2.68397 10.0464 2.99839 9.76501L3.78039 9.06501C3.8923 8.96498 3.98025 8.84103 4.03772 8.70237C4.09519 8.56371 4.12071 8.41388 4.11239 8.26401L4.05439 7.21401C4.03126 6.79296 4.09716 6.37177 4.24779 5.97791C4.39841 5.58404 4.63038 5.22635 4.92855 4.92818C5.22673 4.63 5.58442 4.39804 5.97828 4.24741C6.37215 4.09679 6.79334 4.03089 7.21439 4.05401L8.26439 4.11201C8.41409 4.12019 8.56372 4.09459 8.7022 4.03712C8.84068 3.97965 8.96446 3.89178 9.06439 3.78001L9.76439 2.99801H9.76539ZM15.7074 8.29301C15.8949 8.48054 16.0002 8.73485 16.0002 9.00001C16.0002 9.26518 15.8949 9.51949 15.7074 9.70701L9.70739 15.707C9.51879 15.8892 9.26618 15.99 9.00399 15.9877C8.74179 15.9854 8.49098 15.8802 8.30557 15.6948C8.12016 15.5094 8.01499 15.2586 8.01271 14.9964C8.01044 14.7342 8.11123 14.4816 8.29339 14.293L14.2934 8.29301C14.4809 8.10554 14.7352 8.00023 15.0004 8.00023C15.2656 8.00023 15.5199 8.10554 15.7074 8.29301ZM9.50039 8.00001C9.10256 8.00001 8.72103 8.15805 8.43973 8.43935C8.15842 8.72066 8.00039 9.10219 8.00039 9.50001V9.51001C8.00039 9.90784 8.15842 10.2894 8.43973 10.5707C8.72103 10.852 9.10256 11.01 9.50039 11.01H9.51039C9.90821 11.01 10.2897 10.852 10.571 10.5707C10.8524 10.2894 11.0104 9.90784 11.0104 9.51001V9.50001C11.0104 9.10219 10.8524 8.72066 10.571 8.43935C10.2897 8.15805 9.90821 8.00001 9.51039 8.00001H9.50039ZM14.5004 13C14.1026 13 13.721 13.158 13.4397 13.4394C13.1584 13.7207 13.0004 14.1022 13.0004 14.5V14.51C13.0004 14.9078 13.1584 15.2894 13.4397 15.5707C13.721 15.852 14.1026 16.01 14.5004 16.01H14.5104C14.9082 16.01 15.2897 15.852 15.571 15.5707C15.8524 15.2894 16.0104 14.9078 16.0104 14.51V14.5C16.0104 14.1022 15.8524 13.7207 15.571 13.4394C15.2897 13.158 14.9082 13 14.5104 13H14.5004Z" fill="#001C30"/>
</svg>
