<svg width="14" height="14" viewBox="0 0 14 14" fill="none" xmlns="http://www.w3.org/2000/svg">
<path d="M11.0308 8.57061C11.0308 9.32311 11.6492 9.93561 12.4017 9.93561C12.4017 12.1231 11.8533 12.6714 9.66584 12.6714H4.19417C2.00667 12.6714 1.45834 12.1231 1.45834 9.93561V9.66728C2.21084 9.66728 2.82917 9.04895 2.82917 8.29645C2.82917 7.54395 2.21084 6.92561 1.45834 6.92561V6.65728C1.46417 4.46978 2.00667 3.92145 4.19417 3.92145H9.66C11.8475 3.92145 12.3958 4.46978 12.3958 6.65728V7.20561C11.6433 7.20561 11.0308 7.81228 11.0308 8.57061Z" stroke="#22333B" stroke-linecap="round" stroke-linejoin="round"/>
<path d="M9.45647 3.92148H4.15397L5.86314 2.21231C7.2573 0.818145 7.9573 0.818145 9.35147 2.21231L9.70147 2.56231C9.33397 2.92981 9.24647 3.47231 9.45647 3.92148Z" stroke="#22333B" stroke-linecap="round" stroke-linejoin="round"/>
<path d="M5.7627 3.92157L5.7627 12.6716" stroke="#22333B" stroke-linecap="round" stroke-linejoin="round" stroke-dasharray="5 5"/>
</svg>
