<svg width="20" height="20" viewBox="0 0 20 20" fill="none" xmlns="http://www.w3.org/2000/svg">
<path d="M4.99968 18.332C4.54134 18.332 4.14884 18.1687 3.82218 17.842C3.49551 17.5154 3.33245 17.1231 3.33301 16.6654V8.33203C3.33301 7.8737 3.49634 7.4812 3.82301 7.15453C4.14968 6.82787 4.5419 6.66481 4.99968 6.66537H5.83301V4.9987C5.83301 3.84592 6.2394 2.86314 7.05218 2.05037C7.86495 1.23759 8.84745 0.831476 9.99968 0.832032C11.1525 0.832032 12.1352 1.23842 12.948 2.0512C13.7608 2.86398 14.1669 3.84648 14.1663 4.9987V6.66537H14.9997C15.458 6.66537 15.8505 6.8287 16.1772 7.15537C16.5038 7.48203 16.6669 7.87425 16.6663 8.33203V16.6654C16.6663 17.1237 16.503 17.5162 16.1763 17.8429C15.8497 18.1695 15.4575 18.3326 14.9997 18.332H4.99968ZM4.99968 16.6654H14.9997V8.33203H4.99968V16.6654ZM9.99968 14.1654C10.458 14.1654 10.8505 14.002 11.1772 13.6754C11.5038 13.3487 11.6669 12.9565 11.6663 12.4987C11.6663 12.0404 11.503 11.6479 11.1763 11.3212C10.8497 10.9945 10.4575 10.8315 9.99968 10.832C9.54134 10.832 9.14884 10.9954 8.82218 11.322C8.49551 11.6487 8.33245 12.0409 8.33301 12.4987C8.33301 12.957 8.49634 13.3495 8.82301 13.6762C9.14968 14.0029 9.5419 14.1659 9.99968 14.1654ZM7.49968 6.66537H12.4997V4.9987C12.4997 4.30425 12.2566 3.71398 11.7705 3.22787C11.2844 2.74175 10.6941 2.4987 9.99968 2.4987C9.30523 2.4987 8.71495 2.74175 8.22884 3.22787C7.74273 3.71398 7.49968 4.30425 7.49968 4.9987V6.66537Z" fill="#22333B"/>
</svg>
