<svg width="14" height="14" viewBox="0 0 14 14" fill="none" xmlns="http://www.w3.org/2000/svg">
<path d="M12.8333 6.99998V9.91665C12.8333 11.6666 11.6667 12.8333 9.91666 12.8333H4.08332C2.33332 12.8333 1.16666 11.6666 1.16666 9.91665V6.99998C1.16666 5.41331 2.12332 4.30498 3.61082 4.11831C3.76249 4.09498 3.91999 4.08331 4.08332 4.08331H9.91666C10.0683 4.08331 10.2142 4.08914 10.3542 4.11247C11.8592 4.28747 12.8333 5.40165 12.8333 6.99998Z" stroke="#22333B" stroke-linecap="round" stroke-linejoin="round"/>
<path d="M10.355 4.11252C10.215 4.08919 10.0692 4.08336 9.9175 4.08336H4.08416C3.92083 4.08336 3.76333 4.09503 3.61166 4.11836C3.69333 3.95503 3.81 3.80336 3.95 3.66336L5.84583 1.76169C6.645 0.968354 7.94 0.968354 8.73916 1.76169L9.76 2.7942C10.1333 3.1617 10.3317 3.62835 10.355 4.11252Z" stroke="#22333B" stroke-linecap="round" stroke-linejoin="round"/>
<path d="M12.8333 7.29169H11.0833C10.4417 7.29169 9.91666 7.81669 9.91666 8.45835C9.91666 9.10002 10.4417 9.62502 11.0833 9.62502H12.8333" stroke="#22333B" stroke-linecap="round" stroke-linejoin="round"/>
</svg>
